<svg width="256" height="256" viewBox="0 0 256 256" fill="none" xmlns="http://www.w3.org/2000/svg">
  <defs>
    <linearGradient id="bg" x1="20" y1="16" x2="236" y2="244" gradientUnits="userSpaceOnUse">
      <stop stop-color="#A23A64"/>
      <stop offset="1" stop-color="#5E0017"/>
    </linearGradient>
    <radialGradient id="glow" cx="0" cy="0" r="1" gradientUnits="userSpaceOnUse" gradientTransform="translate(76 70) rotate(46.6) scale(132)">
      <stop stop-color="white" stop-opacity="0.35"/>
      <stop offset="1" stop-color="white" stop-opacity="0"/>
    </radialGradient>
  </defs>

  <rect x="10" y="10" width="236" height="236" rx="58" fill="url(#bg)"/>
  <rect x="10" y="10" width="236" height="236" rx="58" fill="url(#glow)"/>
  <rect x="22" y="22" width="212" height="212" rx="48" stroke="white" stroke-opacity="0.2" stroke-width="2"/>

  <path d="M80 74H138C170.032 74 192 93.9059 192 123.5C192 146.355 177.966 163.016 156.662 169.193L193.283 214H163.329L132.966 176.282H110.262V214H80V74ZM136.98 150.661C152.033 150.661 161.826 140.398 161.826 125.379C161.826 110.111 152.033 99.8492 136.98 99.8492H110.262V150.661H136.98Z" fill="white"/>
</svg>
